<svg xmlns="http://www.w3.org/2000/svg" viewBox="0 0 102.97 146.13"><path d="M93.17,78.45c-3.41-2.38-4.86-6.68-5.66-10.76s-1.2-8.36-3.3-11.95c-2.62-4.48-7.58-7.19-12.65-8.28s-10.32-.75-15.49-.41A21.26,21.26,0,0,1,92,52.46c.36.86,1.12,1.93,2,1.52.63-.32.59-1.23.48-1.93a25.85,25.85,0,0,1,5-19.48c-2.42-.22-3.79,2.59-5.52,4.3-2.36,2.34-6,2.8-9.31,2.38s-6.47-1.55-9.76-1.91c-9.16-1-18.14,4.34-23.72,11.66-.94-4.84,3-9.47,7.58-11.36s9.65-1.82,14.55-2.43a52.38,52.38,0,0,0,15.54-4.48c2.23-1.05,4.67-2.6,5.9-4.81,1.79-3.2.19-3.84-2-5.79-3.94-3.51-5-9.78-10-12.17a2.89,2.89,0,0,0-2.27-.26,4,4,0,0,0-1.48,1.46,15.18,15.18,0,0,1-6,4.82c-5.12,2.31-11.25,1.65-16.26,4.18-4.82,2.43-7.86,7.51-9.11,12.76s-1,10.73-.67,16.11a22.15,22.15,0,0,1-7-20.75A22.17,22.17,0,0,1,54.6,10c-1.11-1.51-3.36-1.33-5.23-1.21A24.51,24.51,0,0,1,32.58,3.5c-.41,2.42,2.48,3.88,4.23,5.61,2.4,2.39,2.85,6.14,2.4,9.49s-1.63,6.59-2,10C36.36,37.62,41.86,46.3,49,52c-4.22.73-8.4-2.15-10.54-5.86S35.79,38,35.34,33.75c-.62-5.73-1.2-11.55-3.28-16.93A17.88,17.88,0,0,0,26,8.4c-1.1-.76-2.58-1.33-3.75-.67a5.43,5.43,0,0,0-1.53,1.76c-3.13,4.42-9.57,5.61-12.5,10.15A3.28,3.28,0,0,0,7.6,22.3c.3,1,1.33,1.6,2.18,2.23,3.41,2.51,4.84,6.87,5.67,11s1.32,8.5,3.54,12.1c2.68,4.35,7.58,7,12.58,8s10.18.69,15.27.35a21.57,21.57,0,0,1-19.29,7.35A21.57,21.57,0,0,1,11.18,50.76c-.47-1.09-1.76-2.42-2.51-1.51a1.79,1.79,0,0,0-.16,1.44A25.22,25.22,0,0,1,3.43,70.46c2.51.2,4-2.65,5.81-4.38,2.63-2.47,6.63-2.77,10.19-2.21s7,1.82,10.61,2c8.73.38,16.36-5.69,22.41-12C52.39,60,46.76,64.74,40.9,66.53s-12.12,1.52-18.16,2.53-12.4,3.86-14.82,9.48a3.13,3.13,0,0,0-.34,1.52c.11,1.29,1.43,2,2.47,2.82,4.32,3.23,5.42,9.92,10.29,12.24a2.9,2.9,0,0,0,1.88.33c1-.25,1.57-1.27,2.16-2.12,2.42-3.46,6.79-5,10.93-5.78s8.5-1.28,12.11-3.46c4.41-2.65,7.07-7.57,8.14-12.61S56.3,61.24,56,56.1a21.42,21.42,0,0,1-7.72,36.8c.54,1.48,2.6,1.47,4.18,1.32a25.68,25.68,0,0,1,18,5.28c.1-2.55-2.77-4-4.5-5.87-2.38-2.58-2.68-6.48-2.15-9.95s1.76-6.83,2-10.34c.55-8.68-5.16-16.57-11.72-22.28,5.42-.8,10.24,4.06,12,9.27s1.32,10.86,2.14,16.28a36.54,36.54,0,0,0,6.09,15.31c1.49,2.15,4.1,4.35,6.44,3.18a8.7,8.7,0,0,0,2.45-2.53c3.34-4,9.73-5.18,12-9.92a3,3,0,0,0,.33-1.93C95.16,79.66,94.07,79.07,93.17,78.45ZM92,40.61c-.31,1.19-.59,2.24-.9,3.42l-3.47-3ZM43.79,12.06,41,15.34c-.14-1.57-.27-3-.42-4.55Zm-25.6,26.3c-.67-3.32-.67-6.78-1.68-10S13.07,22,9.71,21.51a8.06,8.06,0,0,1,4-3.85,2.59,2.59,0,0,1,1.61-.26,3,3,0,0,1,1.36,1,31.86,31.86,0,0,1,7.46,12.74,17.49,17.49,0,0,0-5.77-14.51,12.47,12.47,0,0,0,5.14-5.4c3.39,3.39,4.84,9,6.08,13.47.72,2.63,1.29,5.3,1.81,8,.16.87.63,6.79,1.24,7.06l-5.42-2.37a4.2,4.2,0,0,0,2.41-3,23.31,23.31,0,0,0-10,5.54c1.37,1.09,3.26-1.07,5-.77a2.64,2.64,0,0,1,1.88,2.27,15.61,15.61,0,0,1-.05,3.13,10,10,0,0,0,5,8.76C24.57,51.78,19.59,45.26,18.19,38.36ZM43.27,54.69a12.57,12.57,0,0,1-11.6-4,8.68,8.68,0,0,1-2.13-5.49c-.1-1.4-.12-2.81-.18-4.42,2.6,1.64,5.25,3,7,5.67a15.66,15.66,0,0,0,7.61,6c.85.34,1.69.7,2.54,1l0,.36A28.84,28.84,0,0,1,43.27,54.69ZM10.84,62.42,12,59.16,15.29,62ZM49.66,31.57c1.48-6.73,7.7-11.78,14.44-13.23,3.4-.74,7-.7,10.29-1.69s6.6-3.44,7.08-6.89c1.93.77,4.76,3.52,3.9,5.83a6.35,6.35,0,0,1-2.24,2.62,35.74,35.74,0,0,1-11.53,6A17.51,17.51,0,0,0,86.42,18.4a13.23,13.23,0,0,0,5.52,5.37c-8.38,5.59-18.67,7.31-28.62,8.9l2.35-5.29a4.1,4.1,0,0,0,3,2.28A25,25,0,0,0,63.12,19.6c-1.14,1.49,1.23,3.53.74,5.34a2.55,2.55,0,0,1-2.19,1.65,14.83,14.83,0,0,1-2.9-.08,10.21,10.21,0,0,0-9.13,5.13S49.65,31.59,49.66,31.57Zm-.27,15.21a12.57,12.57,0,0,1-.48-10.15c2.05-5.55,5.7-7.47,13.29-7.19C60.37,32.27,58.81,35,56,36.79a13.88,13.88,0,0,0-5.33,6.85C50.27,44.59,49.89,45.54,49.39,46.78Zm9.85,44.06,2.7-3.13c.15,1.52.28,2.88.44,4.46Zm-15-8c-4,1.85-8.61,1.9-12.93,2.85S22.42,89,21.16,93.24c-1.4-.86-2.91-1.85-3.43-3.42A4.81,4.81,0,0,1,19,85.25a14.19,14.19,0,0,1,4.14-2.73l8.1-4.06c-5.47.55-11.65,1.59-14.67,6.19a13.9,13.9,0,0,0-5.67-5.42l-.06,0c8.57-5.4,18.83-7.25,28.81-9q-1.21,2.73-2.41,5.46a4,4,0,0,0-3-2.3,25.5,25.5,0,0,0,5.56,10C41,82,38.72,80.09,39,78.31a2.62,2.62,0,0,1,2.25-1.88,15.42,15.42,0,0,1,3.11,0c3.45.09,6.11-1.68,8.35-4.08C52.09,76.87,48.23,81,44.24,82.84Zm10.45-23a12.71,12.71,0,0,1-4.27,11.65,7.87,7.87,0,0,1-4.93,1.86l-4.74.25c1.49-2.54,2.88-5.11,5.37-6.76A16.36,16.36,0,0,0,52.43,59c.33-.82.68-1.63,1-2.45l.35,0A20.62,20.62,0,0,1,54.69,59.86Zm12-3.21a15.56,15.56,0,0,0-7.43-6l-2.69-1.09-.06-.45a29,29,0,0,1,4.17-.9,12.36,12.36,0,0,1,10.92,4.48,7.12,7.12,0,0,1,1.49,3.18c.37,2,.41,4.12.62,6.46C71,60.6,68.33,59.26,66.65,56.65ZM89,85.37a2.61,2.61,0,0,1-1.58.16,3,3,0,0,1-1.33-1,34,34,0,0,1-7.27-12.73A17.25,17.25,0,0,0,84.6,86.47a11.87,11.87,0,0,0-5.26,5.43C73,84,72.77,73,70,63.29l5.48,2.37a4.31,4.31,0,0,0-2.13,3,26.68,26.68,0,0,0,10-5.43c-1.36-1.46-3.81,1.22-5.66.45-1.47-.62-1.27-2.71-1.16-4.31a10.81,10.81,0,0,0-5-9.66c7.37,1.91,12,8.15,13.15,15.45.52,3.29.69,6.67,1.84,9.79s3.54,6,6.8,6.7A8.28,8.28,0,0,1,89,85.37Z" style="fill:#fd584f"/><path d="M54.1,83.26c-3.15,6.18-8.45,9-14.86,10.92,1.66,1.3,3.11,2.5,4.62,3.62A12.92,12.92,0,0,0,54.09,100a39.57,39.57,0,0,1,4.21-.33,8.39,8.39,0,0,1,1.3.16A14.4,14.4,0,0,1,50.87,103a12.82,12.82,0,0,1-9.4-3.76c-1.39-1.3-2.6-2.79-3.94-4.15a1.38,1.38,0,0,0-1.08-.44A47.52,47.52,0,0,0,30,96.54c-1.24.51-2.2,1.68-3.3,2.54-.24.19-.69.52-.77.45-.26-.22-.61-.64-.55-.89a9.38,9.38,0,0,1,1-2.58A11.79,11.79,0,0,1,33,91.4a51.74,51.74,0,0,1,8.45-1.84,20.94,20.94,0,0,0,11.57-5.84c.16-.14.3-.29.46-.44A4.19,4.19,0,0,1,54.1,83.26Z" style="fill:#fd584f"/><path d="M19.63,53.58c-3.36-.68-5.32-3.17-7-5.7s-2.73-5.43-4.18-8.42c-1.43,2-3,4.13-4.4,6.34s-1.46,4.87-1.18,7.46c.17,1.62.32,3.23.46,4.85a2.15,2.15,0,0,1-.28,1.19,13.41,13.41,0,0,1-3-10,12.74,12.74,0,0,1,3.43-7.46c1.35-1.47,2.92-2.73,4.31-4.17a2,2,0,0,0,.43-1.56,30.6,30.6,0,0,0-1.59-5.64A21.18,21.18,0,0,0,4,26.76a8.77,8.77,0,0,1-.54-.89c.36-.17.78-.55,1.08-.48a7.82,7.82,0,0,1,2.34.94c2.42,1.55,3.65,4,4.69,6.55a37.71,37.71,0,0,1,2,9.47,18.86,18.86,0,0,0,5.36,10.39C19.17,53,19.4,53.3,19.63,53.58Z" style="fill:#fd584f"/><path d="M99.48,77c-.17.8-.88.76-1.63.52a8.44,8.44,0,0,1-4.7-3.94A24.93,24.93,0,0,1,89.6,62.38a19.39,19.39,0,0,0-5.55-12.05c-.11-.12-.23-.24-.34-.37l-.45-.59.2-.34A21.27,21.27,0,0,1,86.57,51a23,23,0,0,1,7.21,11.84c0,.19.12.39.18.6.18,0,.37,0,.41,0,1.56-2.13,3.24-4.19,4.63-6.43,1.52-2.46,1.26-5.25.93-8-.17-1.44-.23-2.89-.31-4.34a4.67,4.67,0,0,1,.17-1c1.76,1.55,2.26,3.56,2.75,5.49a12.82,12.82,0,0,1-3,12.06c-1.39,1.59-3.09,2.91-4.62,4.38a1.08,1.08,0,0,0-.32.84,54,54,0,0,0,2.06,7C97.19,74.66,98.44,75.72,99.48,77Z" style="fill:#fd584f"/><path d="M49,19.35c3.09-5.72,8.22-8.73,14.74-10.48-1.79-1.39-3.37-2.7-5-3.9C55.55,2.69,52,2.52,48.28,3.09c-1.49.22-3,.24-4.74.36,1-1.88,2.67-2.11,4.08-2.6C52.92-1,57.64.22,61.69,4,63,5.26,64.15,6.72,65.44,8a1.64,1.64,0,0,0,1.33.36,42.44,42.44,0,0,0,6.11-1.79,16.55,16.55,0,0,0,3.2-2.44,8.31,8.31,0,0,1,1.1-.6c.13.45.44.94.34,1.35a8,8,0,0,1-4.07,5,24,24,0,0,1-10.86,3.43,19.67,19.67,0,0,0-12.66,5.92,5.3,5.3,0,0,1-.6.46Z" style="fill:#fd584f"/><path d="M30,134.71H9.6A9.82,9.82,0,0,0,11,139.47a7.83,7.83,0,0,0,3.19,3,9.29,9.29,0,0,0,4.32,1A8.65,8.65,0,0,0,23.6,142a6.94,6.94,0,0,0,2.77-4H29.7a10.36,10.36,0,0,1-3.85,5.87,11.77,11.77,0,0,1-7.39,2.27,12.44,12.44,0,0,1-6.21-1.55A11,11,0,0,1,8,140.17a13.82,13.82,0,0,1-1.55-6.68,14.06,14.06,0,0,1,1.53-6.7,10.66,10.66,0,0,1,4.27-4.4,12.65,12.65,0,0,1,6.26-1.53,12,12,0,0,1,6.13,1.53,10.46,10.46,0,0,1,4.05,4.11,11.81,11.81,0,0,1,1.42,5.73C30.06,133.31,30,134.14,30,134.71Zm-4.21-7.24a7.38,7.38,0,0,0-3.12-2.92,9.52,9.52,0,0,0-4.32-1,8.53,8.53,0,0,0-6,2.25,9,9,0,0,0-2.74,6.34H26.86A8.66,8.66,0,0,0,25.76,127.47Z" style="fill:#231f20"/><path d="M49.08,145.77,39,134.75v11H35.81V112.49H39v19.7l9.89-11h4.41L41.61,133.45l11.74,12.32Z" style="fill:#231f20"/><path d="M61.49,123.87v15.24a4.37,4.37,0,0,0,.85,3.11,4.23,4.23,0,0,0,3,.85h2.87v2.7H64.86a6.92,6.92,0,0,1-4.94-1.55q-1.62-1.56-1.62-5.11V123.87H54.88v-2.65H58.3v-6.16h3.19v6.16h6.74v2.65Z" style="fill:#231f20"/><path d="M73.47,126.82a10.75,10.75,0,0,1,4.19-4.41,11.76,11.76,0,0,1,6-1.55,11.08,11.08,0,0,1,6,1.61,9.46,9.46,0,0,1,3.67,4.14v-5.39h3.15v24.55H93.42v-5.44a9.92,9.92,0,0,1-3.71,4.16,11,11,0,0,1-6,1.64,11.49,11.49,0,0,1-6-1.58,10.85,10.85,0,0,1-4.19-4.45,15.45,15.45,0,0,1,0-13.28Zm18.73,1.46a8.61,8.61,0,0,0-3.3-3.46,8.93,8.93,0,0,0-4.61-1.22,9.34,9.34,0,0,0-4.68,1.17,8.3,8.3,0,0,0-3.26,3.4,11.06,11.06,0,0,0-1.19,5.28,11.23,11.23,0,0,0,1.19,5.28,8.33,8.33,0,0,0,3.26,3.46,9.16,9.16,0,0,0,4.68,1.2,9,9,0,0,0,4.61-1.22,8.67,8.67,0,0,0,3.3-3.46,11.76,11.76,0,0,0,0-10.43Z" style="fill:#231f20"/></svg>