<svg id="图层_2" data-name="图层 2" xmlns="http://www.w3.org/2000/svg" width="1000" height="1667" viewBox="0 0 1000 1667">
  <g id="图层_1" data-name="图层 1">
    <path id="路径_1" data-name="路径 1" d="M268.22,1202.72,426,1302.44v127.91L268.22,1202.72M0,945.67,500,1667V1261.67Z" fill="#53d3e0"/>
    <path id="路径_2" data-name="路径 2" d="M731.78,1202.72,574,1430.35V1302.44l157.78-99.72M1000,945.67l-500,316V1667Z" fill="#5a9ded"/>
    <path id="路径_3" data-name="路径 3" d="M426,273.59v764.77L99.92,832.28,426,273.59M500,0,0,856.67l500,316Z" fill="#ffe94d"/>
    <path id="路径_4" data-name="路径 4" d="M574,273.59,900.08,832.28,574,1038.36V273.59M500,0V1172.67l500-316Z" fill="#ff9c92"/>
    <path id="路径_5" data-name="路径 5" d="M125.19,788.98,99.92,832.27l46.47,29.37L426,710.47V626.34Z" fill="#88d848"/>
    <path id="路径_6" data-name="路径 6" d="M853.61,861.64l46.47-29.37-25.27-43.29L574,626.34v84.13Z" fill="#cc71c2"/>
  </g>
</svg>
